<svg xmlns="http://www.w3.org/2000/svg" viewBox="0 0 40 40"><defs><style>.cls-1{fill:#4189eb;}</style></defs><title>Icon_Feature_ThongTinCaNhan_ed</title><g id="Layer_2" data-name="Layer 2"><g id="Layer_1-2" data-name="Layer 1"><path class="cls-1" d="M16.81,6.38a9.86,9.86,0,1,0,9.86,9.86A9.87,9.87,0,0,0,16.81,6.38Zm8.09,9.86a8.08,8.08,0,1,1-8.09-8.08A8.1,8.1,0,0,1,24.89,16.25Z"/><path class="cls-1" d="M22.46,24l-.07,0-.06,0a9.54,9.54,0,0,1-1.61.92l-.36.16.38.1A15.19,15.19,0,0,1,31.87,38.33H1.75A15.19,15.19,0,0,1,12.88,25.25l.38-.1L12.9,25a9.53,9.53,0,0,1-1.61-.92l-.06,0-.07,0A16.84,16.84,0,0,0,0,39.86V40H33.62v-.14A16.84,16.84,0,0,0,22.46,24Z"/><path class="cls-1" d="M36.78,15.92h1.68c.75,0,1.54.16,1.54,1.12s-.89,1.12-1.54,1.12h-5.7c-.65,0-1.54-.14-1.54-1.12s.79-1.12,1.54-1.12h1.77V7.82H32.76c-.65,0-1.54-.14-1.54-1.12S32,5.58,32.76,5.58h2.36c1.28,0,1.66.23,1.66,1.56ZM33.39,1a.93.93,0,0,1,1.05-1h1.28a.93.93,0,0,1,1.05,1V2.12a.93.93,0,0,1-1.05,1H34.44a.93.93,0,0,1-1.05-1Z"/></g></g></svg>