<svg xmlns="http://www.w3.org/2000/svg" viewBox="0 0 8.78 18.16"><defs><style>.cls-1{fill:#4189eb;}</style></defs><title>Icon_Feature_ThongTinPhanMem</title><g id="Layer_2" data-name="Layer 2"><g id="Layer_1-2" data-name="Layer 1"><path class="cls-1" d="M5.56,15.92H7.24c.75,0,1.54.16,1.54,1.12s-.89,1.12-1.54,1.12H1.54C.89,18.16,0,18,0,17s.79-1.12,1.54-1.12H3.32V7.82H1.54C.89,7.82,0,7.68,0,6.7S.79,5.58,1.54,5.58H3.9c1.28,0,1.66.23,1.66,1.56ZM2.17,1A.93.93,0,0,1,3.22,0H4.51A.93.93,0,0,1,5.56,1V2.12a.93.93,0,0,1-1.05,1H3.22a.93.93,0,0,1-1.05-1Z"/></g></g></svg>