<svg xmlns="http://www.w3.org/2000/svg" viewBox="0 0 24 16"><defs><style>.cls-1{fill:#fff;}</style></defs><title>Icon_Menu_DanhMucDuLieu</title><g id="Layer_2" data-name="Layer 2"><g id="Layer_1-2" data-name="Layer 1"><path class="cls-1" d="M2,1A1,1,0,1,1,1,2,1,1,0,0,1,2,1M2,0A2,2,0,1,0,4,2,2,2,0,0,0,2,0Z"/><rect class="cls-1" x="8" y="1.5" width="16" height="1"/><path class="cls-1" d="M2,7A1,1,0,1,1,1,8,1,1,0,0,1,2,7M2,6A2,2,0,1,0,4,8,2,2,0,0,0,2,6Z"/><rect class="cls-1" x="8" y="7.5" width="16" height="1"/><path class="cls-1" d="M2,13a1,1,0,1,1-1,1,1,1,0,0,1,1-1m0-1a2,2,0,1,0,2,2,2,2,0,0,0-2-2Z"/><rect class="cls-1" x="8" y="13.5" width="16" height="1"/></g></g></svg>