<svg xmlns="http://www.w3.org/2000/svg" viewBox="0 0 24 24"><defs><style>.cls-1{fill:#aaa;}</style></defs><title>Icon_Login_Pass</title><g id="Layer_2" data-name="Layer 2"><g id="Layer_1-2" data-name="Layer 1"><path class="cls-1" d="M22,11a1,1,0,0,1,1,1V22a1,1,0,0,1-1,1H2a1,1,0,0,1-1-1V12a1,1,0,0,1,1-1H22m0-1H2a2,2,0,0,0-2,2V22a2,2,0,0,0,2,2H22a2,2,0,0,0,2-2V12a2,2,0,0,0-2-2Z"/><path class="cls-1" d="M12,15a2,2,0,1,1-2,2,2,2,0,0,1,2-2m0-1a3,3,0,1,0,3,3,3,3,0,0,0-3-3Z"/><path class="cls-1" d="M6.05,11V7a6,6,0,1,1,12,0v4h1V7a7,7,0,1,0-14,0v4Z"/></g></g></svg>