<svg xmlns="http://www.w3.org/2000/svg" viewBox="0 0 24 24"><defs><style>.cls-1{fill:#fff;}</style></defs><title>Icon_Menu_HeThong</title><g id="Layer_2" data-name="Layer 2"><g id="Layer_1-2" data-name="Layer 1"><path class="cls-1" d="M17,1V5H7V1H17m1-1H6V6H18V0Z"/><path class="cls-1" d="M14,19v4H10V19h4m1-1H9v6h6V18Z"/><path class="cls-1" d="M23,19v4H19V19h4m1-1H18v6h6V18Z"/><path class="cls-1" d="M5,19v4H1V19H5m1-1H0v6H6V18Z"/><polygon class="cls-1" points="12.5 6 11.5 6 11.5 18 12.5 18 12.5 6 12.5 6"/><polygon class="cls-1" points="3.5 12 2.5 12 2.5 18 3.5 18 3.5 12 3.5 12"/><polygon class="cls-1" points="21.5 12 20.5 12 20.5 18 21.5 18 21.5 12 21.5 12"/><polygon class="cls-1" points="21.5 11.5 2.5 11.5 2.5 12.5 21.5 12.5 21.5 11.5 21.5 11.5"/></g></g></svg>