<svg xmlns="http://www.w3.org/2000/svg" viewBox="0 0 16 16"><defs><style>.cls-1{fill:#555;}</style></defs><title>Icon_System_RestoreDown</title><g id="Layer_2" data-name="Layer 2"><g id="Layer_1-2" data-name="Layer 1"><path class="cls-1" d="M14,0H6A2,2,0,0,0,4,2V4H5V2A1,1,0,0,1,6,1h8a1,1,0,0,1,1,1v8a1,1,0,0,1-1,1H12v1h2a2,2,0,0,0,2-2V2A2,2,0,0,0,14,0Z"/><path class="cls-1" d="M10,5a1,1,0,0,1,1,1v8a1,1,0,0,1-1,1H2a1,1,0,0,1-1-1V6A1,1,0,0,1,2,5h8m0-1H2A2,2,0,0,0,0,6v8a2,2,0,0,0,2,2h8a2,2,0,0,0,2-2V6a2,2,0,0,0-2-2Z"/></g></g></svg>