<svg xmlns="http://www.w3.org/2000/svg" viewBox="0 0 40 40"><defs><style>.cls-1{fill:#4189eb;}</style></defs><title>Icon_Feature_ThayDoiMatKhau_ed</title><g id="Layer_2" data-name="Layer 2"><g id="Layer_1-2" data-name="Layer 1"><path class="cls-1" d="M36.67,18.33A1.67,1.67,0,0,1,38.33,20V36.67a1.67,1.67,0,0,1-1.67,1.67H3.33a1.67,1.67,0,0,1-1.67-1.67V20a1.67,1.67,0,0,1,1.67-1.67H36.67m0-1.67H3.33A3.34,3.34,0,0,0,0,20V36.67A3.34,3.34,0,0,0,3.33,40H36.67A3.34,3.34,0,0,0,40,36.67V20a3.34,3.34,0,0,0-3.33-3.33Z"/><circle class="cls-1" cx="20" cy="28.33" r="1.67"/><circle class="cls-1" cx="26.67" cy="28.33" r="1.67"/><circle class="cls-1" cx="13.33" cy="28.33" r="1.67"/><path class="cls-1" d="M10.08,18.33V11.67a10,10,0,1,1,20,0h1.67a11.67,11.67,0,1,0-23.33,0v6.67Z"/></g></g></svg>