<svg xmlns="http://www.w3.org/2000/svg" viewBox="0 0 39.23 40"><defs><style>.cls-1{fill:#aaa;}.cls-2{fill:none;stroke:#aaa;stroke-linecap:round;stroke-miterlimit:10;stroke-width:1.67px;}</style></defs><title>Icon_Feature_PhucHoi</title><g id="Layer_2" data-name="Layer 2"><g id="Layer_1-2" data-name="Layer 1"><polygon class="cls-1" points="6.67 6.67 0 6.67 0 8.33 6.67 8.33 6.67 6.67 6.67 6.67"/><polygon class="cls-1" points="8.33 0 6.67 0 6.67 8.33 8.33 8.33 8.33 0 8.33 0"/><path class="cls-1" d="M15.66,39"/><polygon class="cls-1" points="28.33 31.67 28.33 38.33 1.67 38.33 1.67 7.36 4.51 4.51 7.36 1.67 28.33 1.67 28.33 8.33 30 8.33 30 0 6.67 0 3.33 3.33 0 6.67 0 40 30 40 30 31.67 28.33 31.67"/><rect class="cls-1" x="5" y="11.67" width="11.67" height="1.67"/><rect class="cls-1" x="5" y="16.67" width="10" height="1.67"/><rect class="cls-1" x="5" y="21.67" width="10" height="1.67"/><rect class="cls-1" x="5" y="26.67" width="11.67" height="1.67"/><path class="cls-2" d="M29.16,29.17a9.17,9.17,0,1,0-9.1-9.23"/><path class="cls-2" d="M29.23,29.17a9.14,9.14,0,0,1-6.4-2.6"/><rect class="cls-1" x="18.26" y="16.04" width="1.67" height="5" rx="0.83" ry="0.83" transform="translate(-7.18 14.3) rotate(-35)"/><rect class="cls-1" x="20.58" y="16.45" width="1.67" height="5" rx="0.83" ry="0.83" transform="translate(24.65 -9.46) rotate(55)"/></g></g></svg>