<svg xmlns="http://www.w3.org/2000/svg" viewBox="0 0 40 40"><defs><style>.cls-1{fill:#4189eb;}</style></defs><title>Icon_Feature_KhoLuuTruCauHoi_ed</title><g id="Layer_2" data-name="Layer 2"><g id="Layer_1-2" data-name="Layer 1"><path class="cls-1" d="M32,10H8L0,22.56V40H40V22.56ZM9,11.55H31l7,11H1.92ZM38.4,38.45H1.6V24.11H38.4Zm0,0"/><path class="cls-1" d="M16,34.37h8a3.09,3.09,0,1,0,0-6.18H16a3.09,3.09,0,1,0,0,6.18Zm0-4.63h8a1.55,1.55,0,1,1,0,3.09H16a1.55,1.55,0,1,1,0-3.09Zm0,0"/><path class="cls-1" d="M18.46,13.89a7.6,7.6,0,0,1,.33-2.62,6.62,6.62,0,0,1,1.64-1.93A28.58,28.58,0,0,0,22.26,7a3.48,3.48,0,0,0,.55-2,2.89,2.89,0,0,0-.74-2.12A2.83,2.83,0,0,0,20,2.16a3.2,3.2,0,0,0-2,.64,2.25,2.25,0,0,0-.83,1.89H14.67l0-.08a4,4,0,0,1,1.48-3.36A5.83,5.83,0,0,1,20,0a5.66,5.66,0,0,1,4,1.31A4.72,4.72,0,0,1,25.37,5,5.47,5.47,0,0,1,24.45,8,17.12,17.12,0,0,1,22,10.89a3.06,3.06,0,0,0-.85,1.26A7.35,7.35,0,0,0,21,13.89Zm2.66,5.34H18.43V16.52h2.68Z"/></g></g></svg>