<svg xmlns="http://www.w3.org/2000/svg" viewBox="0 0 40 40"><defs><style>.cls-1{fill:#4189eb;}</style></defs><title>Icon_Feature_NhapTuKhoKhac_ed</title><g id="Layer_2" data-name="Layer 2"><g id="Layer_1-2" data-name="Layer 1"><path class="cls-1" d="M13.62,10,20,2.56,26.37,10H22.62v8.33H17.38V10H13.62M10,11.55h5.71V20h8.57V11.55H30L20,0,10,11.55Z"/><path class="cls-1" d="M16,34.37h8a3.09,3.09,0,1,0,0-6.18H16a3.09,3.09,0,1,0,0,6.18Zm0-4.63h8a1.55,1.55,0,1,1,0,3.09H16a1.55,1.55,0,1,1,0-3.09Zm0,0"/><path class="cls-1" d="M32,10H22.62v1.55H31l7,11H1.92l7-11h8.42V10H8L0,22.56V40H40V22.56Zm6.4,28.45H1.6V24.11H38.4Z"/></g></g></svg>