<svg xmlns="http://www.w3.org/2000/svg" xmlns:xlink="http://www.w3.org/1999/xlink" viewBox="0 0 40 40"><defs><style>.cls-1{fill:none;}.cls-2{fill:#aaa;}.cls-3{clip-path:url(#clip-path);}</style><clipPath id="clip-path"><polygon class="cls-1" points="32.75 6.67 32.75 33 7.25 33 7.25 6.67 0 6.67 0 40 40 40 40 6.67 32.75 6.67"/></clipPath></defs><title>Icon_Feature_ThietLapDeThiTuTapTin</title><g id="Layer_2" data-name="Layer 2"><g id="Layer_1-2" data-name="Layer 1"><polygon class="cls-2" points="13.92 6.67 7.25 6.67 7.25 8.33 13.92 8.33 13.92 6.67 13.92 6.67"/><polygon class="cls-2" points="15.58 0 13.92 0 13.92 8.33 15.58 8.33 15.58 0 15.58 0"/><path class="cls-2" d="M22.91,31.75"/><polygon class="cls-2" points="31.08 26.67 31.08 31.08 8.92 31.08 8.92 7.36 11.76 4.51 14.61 1.67 31.08 1.67 31.08 26.69 32.75 26.69 32.75 0 13.92 0 10.58 3.33 7.25 6.67 7.25 32.75 32.75 32.75 32.75 26.67 31.08 26.67"/><rect class="cls-2" x="12.25" y="11.17" width="11.67" height="1.67"/><rect class="cls-2" x="12.25" y="16.17" width="10" height="1.67"/><rect class="cls-2" x="12.25" y="21.17" width="10" height="1.67"/><rect class="cls-2" x="12.25" y="26.17" width="11.67" height="1.67"/><g class="cls-3"><path class="cls-2" d="M18,8.33a.34.34,0,0,1,.33.33v3.67H38a.34.34,0,0,1,.33.33V38a.34.34,0,0,1-.33.33H2A.34.34,0,0,1,1.67,38V8.67A.34.34,0,0,1,2,8.33H18m0-1.67H2a2,2,0,0,0-2,2V38a2,2,0,0,0,2,2H38a2,2,0,0,0,2-2V12.67a2,2,0,0,0-2-2H20v-2a2,2,0,0,0-2-2Z"/></g></g></g></svg>