<svg xmlns="http://www.w3.org/2000/svg" viewBox="0 0 33 40"><defs><style>.cls-1{fill:#4189eb;}</style></defs><title>Icon_Feature_HuongDanSuDung_ed</title><g id="Layer_2" data-name="Layer 2"><g id="Layer_1-2" data-name="Layer 1"><path class="cls-1" d="M29.67,1.67a1.67,1.67,0,0,1,1.67,1.67V36.67a1.67,1.67,0,0,1-1.67,1.67H3.33a1.67,1.67,0,0,1-1.67-1.67V3.33A1.67,1.67,0,0,1,3.33,1.67H29.67m0-1.67H3.33A3.33,3.33,0,0,0,0,3.33V36.67A3.33,3.33,0,0,0,3.33,40H29.67A3.33,3.33,0,0,0,33,36.67V3.33A3.33,3.33,0,0,0,29.67,0Z"/><rect class="cls-1" x="3.33" width="1.67" height="40"/><path class="cls-1" d="M27.17,17.5l-1.37-.25c-.13-.25-.13-.5-.25-.75l.75-1.12.62-.88-3.25-3.25-.88.62-1.12.75c-.25-.12-.5-.12-.75-.25L20.67,11l-.25-1h-4.5l-.25,1-.25,1.37c-.25.13-.5.13-.75.25l-1.12-.75-.88-.5L9.54,14.5l.63.88.75,1.12c-.25.25-.25.5-.38.75l-1.37.25-1,.25v4.5l1,.25,1.37.25c.13.25.13.5.25.75L10,24.62l-.62.88,3.25,3.25.88-.62,1.12-.75c.25.12.5.12.75.25L15.67,29l.25,1h4.5l.25-1,.25-1.37c.25-.13.5-.13.75-.25l1.12.75.88.62,3.25-3.25-.62-.88-.75-1.12a1.84,1.84,0,0,0,.25-.75l1.37-.25,1-.25v-4.5Zm.23,3.82-2.24.4a6.44,6.44,0,0,1-.79,2l1.19,1.85-1.84,1.84L21.86,26.2a6.44,6.44,0,0,1-2,.79l-.4,2.24H16.85L16.45,27a6.39,6.39,0,0,1-2-.79l-1.85,1.19-1.84-1.84L12,23.69a6.09,6.09,0,0,1-.79-2l-2.24-.4V18.68l2.24-.4a6,6,0,0,1,.79-2l-1.32-1.85,1.85-1.84,1.84,1.19a6.06,6.06,0,0,1,2-.79l.53-2.24h2.63l.4,2.24a6.1,6.1,0,0,1,2,.79l1.85-1.19,1.84,1.84-1.19,1.85a6.39,6.39,0,0,1,.79,2l2.24.4Zm-.48-.07"/><path class="cls-1" d="M18.16,15.38A4.62,4.62,0,1,0,22.78,20a4.67,4.67,0,0,0-4.62-4.61Zm0,8.46A3.85,3.85,0,1,1,22,20a3.81,3.81,0,0,1-3.85,3.85Zm0-.55"/></g></g></svg>