<svg xmlns="http://www.w3.org/2000/svg" viewBox="0 0 24 24"><defs><style>.cls-1{fill:#fff;}</style></defs><title>Icon_Menu_KhoLuuTruCauHoi</title><g id="Layer_2" data-name="Layer 2"><g id="Layer_1-2" data-name="Layer 1"><path class="cls-1" d="M19.2,6H4.8L0,13.54V24H24V13.54ZM5.38,6.93H18.62l4.22,6.61H1.15ZM23,23.07H1V14.46H23Zm0,0"/><path class="cls-1" d="M9.6,20.62h4.8a1.85,1.85,0,1,0,0-3.71H9.6a1.85,1.85,0,1,0,0,3.71Zm0-2.78h4.8a.93.93,0,1,1,0,1.86H9.6a.93.93,0,1,1,0-1.86Zm0,0"/><path class="cls-1" d="M11.07,8.34a4.56,4.56,0,0,1,.2-1.57,4,4,0,0,1,1-1.16,17.15,17.15,0,0,0,1.1-1.41A2.09,2.09,0,0,0,13.68,3a1.73,1.73,0,0,0-.44-1.27A1.7,1.7,0,0,0,12,1.3a1.92,1.92,0,0,0-1.21.39,1.35,1.35,0,0,0-.5,1.14H8.8l0,0a2.43,2.43,0,0,1,.89-2A3.5,3.5,0,0,1,12,0a3.4,3.4,0,0,1,2.39.79A2.83,2.83,0,0,1,15.22,3a3.28,3.28,0,0,1-.55,1.84,10.27,10.27,0,0,1-1.46,1.71,1.83,1.83,0,0,0-.51.76,4.41,4.41,0,0,0-.09,1Zm1.59,3.2H11.06V9.91h1.61Z"/></g></g></svg>