<svg xmlns="http://www.w3.org/2000/svg" viewBox="0 0 40 40"><defs><style>.cls-1{fill:#aaa;}</style></defs><title>Icon_Feature_DuyetCauHoi</title><g id="Layer_2" data-name="Layer 2"><g id="Layer_1-2" data-name="Layer 1"><path class="cls-1" d="M37.8,10a.54.54,0,0,1,.38.92L22.59,26.51a.54.54,0,0,1-.76,0l-6.24-6.24a.54.54,0,1,1,.76-.76L21,24.19l1.18,1.18,1.18-1.18,14-14A.54.54,0,0,1,37.8,10m0-1.67A2.2,2.2,0,0,0,36.24,9l-14,14-4.68-4.68a2.2,2.2,0,0,0-3.12,3.12l6.24,6.24a2.2,2.2,0,0,0,3.12,0L39.35,12.1A2.2,2.2,0,0,0,37.8,8.33Z"/><polygon class="cls-1" points="6.67 6.67 0 6.67 0 8.33 6.67 8.33 6.67 6.67 6.67 6.67"/><polygon class="cls-1" points="8.33 0 6.67 0 6.67 8.33 8.33 8.33 8.33 0 8.33 0"/><path class="cls-1" d="M15.66,39"/><polygon class="cls-1" points="28.33 25 28.33 38.33 1.67 38.33 1.67 7.36 4.51 4.51 7.36 1.67 28.33 1.67 28.33 15 30 13.33 30 0 6.67 0 3.33 3.33 0 6.67 0 40 30 40 30 23.33 28.33 25"/><rect class="cls-1" x="5" y="11.67" width="10" height="1.67"/><rect class="cls-1" x="5" y="16.67" width="6.67" height="1.67"/><rect class="cls-1" x="5" y="21.67" width="6.67" height="1.67"/><rect class="cls-1" x="5" y="26.67" width="10" height="1.67"/></g></g></svg>