<svg xmlns="http://www.w3.org/2000/svg" viewBox="0 0 12 12"><defs><style>.cls-1{fill:#4189eb;}</style></defs><title>Icon_Edit</title><g id="Layer_2" data-name="Layer 2"><g id="Layer_1-2" data-name="Layer 1"><path class="cls-1" d="M10,1a1,1,0,0,1,.71,1.7L4.95,8.46,3.54,7,9.29,1.29A1,1,0,0,1,10,1m0-1A2,2,0,0,0,8.59.58L2.12,7,4.95,9.88l6.47-6.47A2,2,0,0,0,10,0Z"/><polygon class="cls-1" points="1.63 8.68 3.32 10.37 0.79 11.21 1.63 8.68"/><path class="cls-1" d="M1.85,9.61l.54.54-.81.27.27-.81M1.41,7.76,0,12l4.24-1.41L1.41,7.76Z"/></g></g></svg>