<svg xmlns="http://www.w3.org/2000/svg" viewBox="0 0 40 26.67"><defs><style>.cls-1{fill:#aaa;}</style></defs><title>Icon_Feature_DanhMucChuyenDe</title><g id="Layer_2" data-name="Layer 2"><g id="Layer_1-2" data-name="Layer 1"><rect class="cls-1" x="13.33" y="2.5" width="26.67" height="1.67"/><rect class="cls-1" x="13.33" y="12.5" width="26.67" height="1.67"/><rect class="cls-1" x="13.33" y="22.5" width="26.67" height="1.67"/><polygon class="cls-1" points="3.33 5.26 1.27 6.34 1.67 4.05 0 2.42 2.3 2.09 3.33 0 4.36 2.09 6.67 2.42 5 4.05 5.39 6.34 3.33 5.26"/><polygon class="cls-1" points="3.33 15.42 1.27 16.5 1.67 14.21 0 12.59 2.3 12.25 3.33 10.16 4.36 12.25 6.67 12.59 5 14.21 5.39 16.5 3.33 15.42"/><polygon class="cls-1" points="3.33 25.58 1.27 26.67 1.67 24.37 0 22.75 2.3 22.41 3.33 20.33 4.36 22.41 6.67 22.75 5 24.37 5.39 26.67 3.33 25.58"/></g></g></svg>