<svg xmlns="http://www.w3.org/2000/svg" viewBox="0 0 39.13 40"><defs><style>.cls-1{fill:#aaa;}</style></defs><title>Icon_Feature_SaoLuu</title><g id="Layer_2" data-name="Layer 2"><g id="Layer_1-2" data-name="Layer 1"><polygon class="cls-1" points="6.67 6.67 0 6.67 0 8.33 6.67 8.33 6.67 6.67 6.67 6.67"/><polygon class="cls-1" points="8.33 0 6.67 0 6.67 8.33 8.33 8.33 8.33 0 8.33 0"/><path class="cls-1" d="M15.66,39"/><polygon class="cls-1" points="28.33 31.67 28.33 38.33 1.67 38.33 1.67 7.36 4.51 4.51 7.36 1.67 28.33 1.67 28.33 8.33 30 8.33 30 0 6.67 0 3.33 3.33 0 6.67 0 40 30 40 30 31.67 28.33 31.67"/><rect class="cls-1" x="5" y="11.67" width="11.67" height="1.67"/><rect class="cls-1" x="5" y="16.67" width="10" height="1.67"/><rect class="cls-1" x="5" y="21.67" width="10" height="1.67"/><rect class="cls-1" x="5" y="26.67" width="11.67" height="1.67"/><path class="cls-1" d="M35.5,20l-6.37,7.44L22.75,20H26.5V11.67h5.24V20H35.5m3.62-1.67H33.41V10H24.84v8.34H19.13L29.13,30l10-11.66Z"/></g></g></svg>