<svg xmlns="http://www.w3.org/2000/svg" viewBox="0 0 40 40"><defs><style>.cls-1{fill:#aaa;}</style></defs><title>Icon_Feature_TaoCauHoi</title><g id="Layer_2" data-name="Layer 2"><g id="Layer_1-2" data-name="Layer 1"><path class="cls-1" d="M20,1.67A18.33,18.33,0,0,1,33,33,18.33,18.33,0,0,1,7,7,18.21,18.21,0,0,1,20,1.67M20,0A20,20,0,1,0,34.14,5.86,19.94,19.94,0,0,0,20,0Z"/><polygon class="cls-1" points="30 19.17 10 19.17 10 20.83 30 20.83 30 19.17 30 19.17"/><polygon class="cls-1" points="20.83 10 19.17 10 19.17 30 20.83 30 20.83 10 20.83 10"/></g></g></svg>