<svg xmlns="http://www.w3.org/2000/svg" viewBox="0 0 40 40"><defs><style>.cls-1{fill:#aaa;}.cls-2{fill:none;stroke:#aaa;stroke-linecap:round;stroke-miterlimit:10;stroke-width:1.67px;}</style></defs><title>Icon_Feature_DongBo</title><g id="Layer_2" data-name="Layer 2"><g id="Layer_1-2" data-name="Layer 1"><polygon class="cls-1" points="6.67 6.67 0 6.67 0 8.33 6.67 8.33 6.67 6.67 6.67 6.67"/><polygon class="cls-1" points="8.33 0 6.67 0 6.67 8.33 8.33 8.33 8.33 0 8.33 0"/><path class="cls-1" d="M15.66,39"/><polygon class="cls-1" points="28.33 31.67 28.33 38.33 1.67 38.33 1.67 7.36 4.51 4.51 7.36 1.67 28.33 1.67 28.33 8.33 30 8.33 30 0 6.67 0 3.33 3.33 0 6.67 0 40 30 40 30 31.67 28.33 31.67"/><rect class="cls-1" x="5" y="11.67" width="11.67" height="1.67"/><rect class="cls-1" x="5" y="16.67" width="10" height="1.67"/><rect class="cls-1" x="5" y="21.67" width="10" height="1.67"/><rect class="cls-1" x="5" y="26.67" width="11.67" height="1.67"/><path class="cls-2" d="M36.75,17a9.17,9.17,0,0,0-17.82,3"/><path class="cls-1" d="M36.81,17.17"/><rect class="cls-1" x="17.13" y="16.04" width="1.67" height="5" rx="0.83" ry="0.83" transform="translate(-7.38 13.66) rotate(-35)"/><rect class="cls-1" x="19.45" y="16.45" width="1.67" height="5" rx="0.83" ry="0.83" transform="translate(24.17 -8.54) rotate(55)"/><path class="cls-2" d="M19.42,22.7a9.17,9.17,0,0,0,17.82-3"/><path class="cls-1" d="M19.36,22.51"/><rect class="cls-1" x="37.38" y="18.64" width="1.67" height="5" rx="0.83" ry="0.83" transform="translate(81.64 16.55) rotate(145)"/><rect class="cls-1" x="35.06" y="18.23" width="1.67" height="5" rx="0.83" ry="0.83" transform="translate(39.49 62.03) rotate(-125)"/></g></g></svg>