<svg xmlns="http://www.w3.org/2000/svg" viewBox="0 0 25 25"><defs><style>.cls-1{fill:#fff;}</style></defs><title>Icon_Menu_TroGiup</title><g id="Layer_2" data-name="Layer 2"><g id="Layer_1-2" data-name="Layer 1"><path class="cls-1" d="M10,1a9,9,0,0,1,6.36,15.36A9,9,0,0,1,3.64,3.64,8.94,8.94,0,0,1,10,1m0-1a10,10,0,1,0,7.07,2.93A10,10,0,0,0,10,0Z"/><rect class="cls-1" x="17" y="16.31" width="1" height="2.38" transform="translate(-7.25 17.5) rotate(-45)"/><path class="cls-1" d="M19.76,18.34l3.83,3.83-1.41,1.41-3.83-3.83,1.41-1.41m0-1.41-2.83,2.83L22.17,25,25,22.17l-5.24-5.24Z"/><path class="cls-1" d="M9.19,12.25a4,4,0,0,1,.17-1.37,3.47,3.47,0,0,1,.86-1,15,15,0,0,0,1-1.23,1.83,1.83,0,0,0,.29-1,1.52,1.52,0,0,0-.39-1.11A1.49,1.49,0,0,0,10,6.09a1.67,1.67,0,0,0-1.06.34,1.18,1.18,0,0,0-.44,1H7.2l0,0A2.13,2.13,0,0,1,8,5.61,3.06,3.06,0,0,1,10,5a3,3,0,0,1,2.09.69,2.48,2.48,0,0,1,.75,1.92,2.87,2.87,0,0,1-.48,1.61,9,9,0,0,1-1.27,1.5,1.6,1.6,0,0,0-.45.66,3.88,3.88,0,0,0-.08.92ZM10.58,15H9.18V13.63h1.41Z"/></g></g></svg>