<svg xmlns="http://www.w3.org/2000/svg" viewBox="0 0 24 24"><defs><style>.cls-1{fill:#fff;}.cls-2{fill:none;stroke:#fff;stroke-miterlimit:10;}</style></defs><title>Icon_Menu_ThietLapDeThi</title><g id="Layer_2" data-name="Layer 2"><g id="Layer_1-2" data-name="Layer 1"><polygon class="cls-1" points="4 4 0 4 0 5 4 5 4 4 4 4"/><polygon class="cls-1" points="5 0 4 0 4 5 5 5 5 0 5 0"/><path class="cls-2" d="M9.4,23.4"/><path class="cls-1" d="M23.35,10.38l-.89-.16c-.08-.16-.08-.33-.16-.49L22.78,9l.4-.57L21.08,6.31l-.57.4-.73.49c-.16-.08-.33-.08-.49-.16l-.16-.89L19,5.5H16l-.16.65L15.71,7c-.16.08-.33.08-.49.16l-.73-.49-.57-.32-2,2L12.3,9l.49.73c-.16.16-.16.32-.25.49l-.89.16-.65.16v2.92l.65.16.89.16c.08.16.08.32.16.49l-.49.73-.4.57,2.11,2.11.57-.4.73-.49c.16.08.32.08.49.16l.16.89.16.65H19l.16-.65.16-.89c.16-.08.33-.08.49-.16l.73.49.57.4,2.11-2.11-.4-.57-.49-.73a1.19,1.19,0,0,0,.16-.49l.89-.16.65-.16V10.54Zm.15,2.48L22,13.11a4.19,4.19,0,0,1-.52,1.29l.77,1.2-1.2,1.2L19.9,16a4.19,4.19,0,0,1-1.29.52L18.36,18H16.64l-.26-1.46A4.15,4.15,0,0,1,15.1,16l-1.2.77-1.2-1.2.77-1.2A4,4,0,0,1,13,13.11l-1.46-.26V11.14L13,10.88a3.93,3.93,0,0,1,.52-1.28l-.86-1.2,1.2-1.2L15,8a3.94,3.94,0,0,1,1.29-.52L16.64,6h1.71l.26,1.46A4,4,0,0,1,19.9,8l1.2-.77,1.2,1.2-.77,1.2A4.15,4.15,0,0,1,22,10.88l1.46.26Zm-.31,0"/><path class="cls-1" d="M17.5,9a3,3,0,1,0,3,3,3,3,0,0,0-3-3Zm0,5.5A2.5,2.5,0,1,1,20,12a2.48,2.48,0,0,1-2.5,2.5Zm0-.36"/><polygon class="cls-1" points="17 19.5 17 23 1 23 1 4.41 2.71 2.71 4.41 1 17 1 17 4.5 18 4.5 18 0 4 0 2 2 0 4 0 24 18 24 18 19.5 17 19.5"/><rect class="cls-1" x="3" y="7" width="7" height="1"/><rect class="cls-1" x="3" y="10" width="6" height="1"/><rect class="cls-1" x="3" y="13" width="6" height="1"/><rect class="cls-1" x="3" y="16" width="7" height="1"/></g></g></svg>