<svg xmlns="http://www.w3.org/2000/svg" viewBox="0 0 24 24"><defs><style>.cls-1{fill:#fff;}</style></defs><title>Icon_Menu_ThongTinNguoiDung</title><g id="Layer_2" data-name="Layer 2"><g id="Layer_1-2" data-name="Layer 1"><path class="cls-1" d="M10.08,3.83A5.92,5.92,0,1,0,16,9.75,5.92,5.92,0,0,0,10.08,3.83Zm4.85,5.92A4.85,4.85,0,1,1,10.08,4.9,4.86,4.86,0,0,1,14.94,9.75Z"/><path class="cls-1" d="M13.48,14.43h0l0,0a5.72,5.72,0,0,1-1,.55l-.22.1.23.06A9.11,9.11,0,0,1,19.12,23H1a9.11,9.11,0,0,1,6.68-7.85L8,15.09,7.74,15a5.72,5.72,0,0,1-1-.55l0,0h0A10.1,10.1,0,0,0,0,23.92V24H20.17v-.08A10.1,10.1,0,0,0,13.48,14.43Z"/><path class="cls-1" d="M22.07,9.55h1c.45,0,.92.1.92.67s-.53.67-.92.67H19.66c-.39,0-.92-.08-.92-.67s.48-.67.92-.67h1.06V4.69H19.66c-.39,0-.92-.08-.92-.67s.48-.67.92-.67h1.41c.77,0,1,.14,1,.94ZM20,.63A.56.56,0,0,1,20.67,0h.77a.56.56,0,0,1,.63.63v.64a.56.56,0,0,1-.63.63h-.77A.56.56,0,0,1,20,1.27Z"/></g></g></svg>