<svg xmlns="http://www.w3.org/2000/svg" viewBox="0 0 12 12"><defs><style>.cls-1{fill:#4189eb;}</style></defs><title>Icon_Feature_Delete</title><g id="Layer_2" data-name="Layer 2"><g id="Layer_1-2" data-name="Layer 1"><path class="cls-1" d="M11,1.79h-2V.47A.47.47,0,0,0,8.46,0L8.41,0l0,0H3.54a.46.46,0,0,0-.47.47V1.79H1a1,1,0,0,0-1,1V4.52H.9V11a1,1,0,0,0,1,1h8.15a1,1,0,0,0,1-1V4.52H12V2.82a1,1,0,0,0-1-1ZM4,.94H8v.85H4Zm6.15,10c0,.06,0,.09-.09.09H1.92c-.06,0-.09,0-.09-.09V4.52h8.32Zm.89-7.4H.95V2.82c0-.06,0-.09.09-.09H11c.06,0,.09,0,.09.09Zm0,0"/><rect class="cls-1" x="7.72" y="6.52" width="0.95" height="2.54"/><rect class="cls-1" x="5.53" y="6.52" width="0.95" height="2.54"/><rect class="cls-1" x="3.34" y="6.52" width="0.95" height="2.54"/></g></g></svg>