<svg xmlns="http://www.w3.org/2000/svg" viewBox="0 0 40 40"><defs><style>.cls-1{fill:#4189eb;}</style></defs><title>Icon_Feature_ThongTinPhanMem_ed</title><g id="Layer_2" data-name="Layer 2"><g id="Layer_1-2" data-name="Layer 1"><path class="cls-1" d="M20,1.67A18.33,18.33,0,1,1,1.67,20,18.35,18.35,0,0,1,20,1.67M20,0A20,20,0,1,0,40,20,20,20,0,0,0,20,0Z"/><path class="cls-1" d="M21.17,26h1.68c.75,0,1.54.16,1.54,1.12s-.89,1.12-1.54,1.12h-5.7c-.65,0-1.54-.14-1.54-1.12S16.41,26,17.15,26h1.77v-8.1H17.15c-.65,0-1.54-.14-1.54-1.12s.79-1.12,1.54-1.12h2.36c1.28,0,1.66.23,1.66,1.56ZM17.78,11.14a.93.93,0,0,1,1.05-1h1.28a.93.93,0,0,1,1.05,1v1.07a.93.93,0,0,1-1.05,1H18.83a.93.93,0,0,1-1.05-1Z"/></g></g></svg>