<svg xmlns="http://www.w3.org/2000/svg" xmlns:xlink="http://www.w3.org/1999/xlink" viewBox="0 0 40 40"><defs><style>.cls-1{fill:none;}.cls-2{clip-path:url(#clip-path);}.cls-3{fill:#aaa;}.cls-4{clip-path:url(#clip-path-2);}</style><clipPath id="clip-path" transform="translate(0 0)"><polyline class="cls-1" points="38.08 22.56 32.75 14.22 32.75 0 7.25 0 7.25 14.22 1.92 22.56"/></clipPath><clipPath id="clip-path-2" transform="translate(0 0)"><polygon class="cls-1" points="7.25 0 32.75 0 32.75 22.56 7.25 22.56 7.25 0 0 0 0 40 40 40 40 0 7.25 0"/></clipPath></defs><title>Icon_Feature_ThietLapDeThiTukho</title><g id="Layer_2" data-name="Layer 2"><g id="Layer_1-2" data-name="Layer 1"><g class="cls-2"><polygon class="cls-3" points="13.92 6.67 7.25 6.67 7.25 8.33 13.92 8.33 13.92 6.67 13.92 6.67"/><polygon class="cls-3" points="15.58 0 13.92 0 13.92 8.33 15.58 8.33 15.58 0 15.58 0"/><path class="cls-3" d="M22.91,31.75" transform="translate(0 0)"/><polygon class="cls-3" points="31.08 26.67 31.08 31.08 8.92 31.08 8.92 7.36 11.76 4.51 14.61 1.67 31.08 1.67 31.08 26.69 32.75 26.69 32.75 0 13.92 0 10.58 3.33 7.25 6.67 7.25 32.75 32.75 32.75 32.75 26.67 31.08 26.67"/><rect class="cls-3" x="12.25" y="11.17" width="11.67" height="1.67"/><rect class="cls-3" x="12.25" y="16.17" width="10" height="1.67"/></g><g class="cls-4"><path class="cls-3" d="M13.62,10,20,2.56,26.37,10H22.62v8.33H17.38V10H13.62M10,11.55h5.71V20h8.57V11.55H30L20,0,10,11.55Z" transform="translate(0 0)"/><path class="cls-3" d="M16,34.37h8a3.09,3.09,0,1,0,0-6.18H16a3.09,3.09,0,1,0,0,6.18Zm0-4.63h8a1.55,1.55,0,1,1,0,3.09H16a1.55,1.55,0,1,1,0-3.09Zm0,0" transform="translate(0 0)"/><path class="cls-3" d="M32,10H22.62v1.55H31l7,11H1.92l7-11h8.42V10H8L0,22.56V40H40V22.56Zm6.4,28.45H1.6V24.11H38.4Z" transform="translate(0 0)"/></g></g></g></svg>