<svg xmlns="http://www.w3.org/2000/svg" viewBox="0 0 192 66.27"><defs><style>.cls-1{fill:#fff;}.cls-2{fill:#4189eb;}</style></defs><title>Img_Logo</title><g id="Layer_2" data-name="Layer 2"><g id="Layer_1-2" data-name="Layer 1"><path class="cls-1" d="M6.21,41.3H22l.14.14v1.63l-.14.14H7.55q-2.91,0-3.76,1.28a3.66,3.66,0,0,0-1,2.41,3.7,3.7,0,0,0,2.84,3.69l.71.07H17.06A5.72,5.72,0,0,1,22.24,54a5,5,0,0,1,.57,2.34V57q0,2.57-3,4.68a6.21,6.21,0,0,1-2.41.71H1L.89,62.3V60.6L1,60.45H16.21q3.47,0,4.4-2.62l.21-1.21a3.76,3.76,0,0,0-3-3.83l-.5-.07L6,52.65q-2,0-4.11-2.34a6,6,0,0,1-1-3.12v-.57q0-2.84,3.19-4.82A6.76,6.76,0,0,1,6.21,41.3Z"/><path class="cls-1" d="M30.82,49.39H32q3.53,0,5.6,3.69a5.45,5.45,0,0,1,.64,2.55v.57q0,3.53-3.76,5.67a6.26,6.26,0,0,1-2.48.57H30.82q-3.53,0-5.6-3.69a5.45,5.45,0,0,1-.64-2.55v-.57q0-3.44,3.62-5.6A6.27,6.27,0,0,1,30.82,49.39ZM26.56,55.7v.43q0,2.66,2.91,4a3.79,3.79,0,0,0,1.42.28H32q2.8,0,4.11-3.12a3.4,3.4,0,0,0,.21-1.21V55.7q0-2.66-2.91-4A3.79,3.79,0,0,0,32,51.38H30.89q-2.66,0-4,2.91A3.79,3.79,0,0,0,26.56,55.7Z"/><path class="cls-1" d="M42.24,49.39H50a3.77,3.77,0,0,1,3.48,2.48,2.74,2.74,0,0,1,.28,1.21V62.3l-.14.14H52l-.14-.14v-.92a3.76,3.76,0,0,1-2.41,1.06H43.73q-2.16,0-3.41-2.48A2.73,2.73,0,0,1,40,58.75v-.5q0-2.55,3-3.69l1.21-.14h4.68a4.51,4.51,0,0,1,3,1.06V54q0-2.69-2.34-2.7H42.24l-.14-.14V49.53ZM42,58.47q.41,2.06,2.06,2.06h4.61a2.32,2.32,0,0,0,2.48-1.42l.07-.5v-.14a1.93,1.93,0,0,0-1.56-2L49,56.41H44.15Q42,56.68,42,58.47Z"/><path class="cls-1" d="M55.72,49.39h1.63q.14,0,.14.57a3.9,3.9,0,0,1,2-.57h4.89q2.18,0,3.4,2.48a2.73,2.73,0,0,1,.28,1.21V62.3l-.14.14H66.28l-.14-.14V53.86a2.28,2.28,0,0,0-1.21-2.34,1.77,1.77,0,0,0-.78-.14H59.55a2,2,0,0,0-1.92,1.35l-.14,1V62.3l-.14.14H55.72l-.14-.14V49.53Z"/><path class="cls-1" d="M81.48,41.3H95.17q5.41,0,8.87,5.39a10.59,10.59,0,0,1,1.28,4.68v1q0,4.81-4.75,8.44a10.5,10.5,0,0,1-5.18,1.63H81.48l-.14-.14V41.44Zm1.77,2.06v17H95q4.86,0,7.52-5a8.33,8.33,0,0,0,.71-3.19v-.78q0-4.06-4-6.88A8.06,8.06,0,0,0,95,43.36Z"/><path class="cls-1" d="M113.33,49.39h3.76q2.15,0,3.41,2.48a2.74,2.74,0,0,1,.28,1.21v.57q0,2.5-2.91,3.69l-1.28.14h-7.24a4,4,0,0,0,1.13,1.77q1.06,1.28,4.54,1.28h4.54l.14.14V62.3l-.14.14h-6.24q-3.53,0-5.6-3.69a5.45,5.45,0,0,1-.64-2.55v-.57q0-3.44,3.62-5.6A6.27,6.27,0,0,1,113.33,49.39Zm-4.26,6.1h7.66q2.06-.25,2.06-2l.07-.07A2,2,0,0,0,117,51.38H113.4q-2.84,0-4.19,3.26Zm5.46-10.55.07-.11,2.55,2-.43.85q-1.37-.66-2.07-1.08-.73.43-2.18,1.13l-.43-.85Z"/><path class="cls-1" d="M134.2,41.3h27l.14.14v1.63l-.14.14H148.67V62.3l-.14.14h-1.7l-.14-.14V43.22H134.2l-.14-.14V41.44Z"/><path class="cls-1" d="M163.21,43.15h1.63l.14.14V50a3.49,3.49,0,0,1,1.92-.57h6q2.77,0,3.83,3.26V62.3l-.14.14h-1.63l-.14-.14V54q0-2-1.21-2.48A5,5,0,0,0,172,51.3h-4.26q-2,0-2.48,1.06A3.81,3.81,0,0,0,165,54v8.3l-.14.14h-1.63l-.14-.14v-19Z"/><path class="cls-1" d="M178.6,46.76h1.63l.14.14v1.28l-.14.14H178.6l-.14-.14V46.91Zm0,2.62h1.63l.14.14V62.3l-.14.14H178.6l-.14-.14V49.53Z"/><rect class="cls-1" x="81.34" y="47.08" width="1.92" height="9.58" transform="translate(134.17 -30.43) rotate(90)"/><rect class="cls-1" x="118.01" y="41.99" width="0.96" height="4.79" transform="translate(228.66 -17.85) rotate(130)"/><circle class="cls-1" cx="46.92" cy="65.31" r="0.96"/><path class="cls-2" d="M12.65,0H128.48a2.11,2.11,0,0,1,2.11,2.11V23.19a2.11,2.11,0,0,1-2.11,2.11H12.65A12.65,12.65,0,0,1,0,12.65v0A12.65,12.65,0,0,1,12.65,0Z"/><path class="cls-1" d="M12.37,2.11h13l.14.14V4l-.14.14H12.51Q8,4.16,5.22,8.55a8.45,8.45,0,0,0-1.06,4.17v.07q0,5,5.17,7.71a9.61,9.61,0,0,0,3.4.64H25.39l.14.14v1.77l-.14.14H12.16q-4.62,0-8.14-4.46a10,10,0,0,1-1.91-5.8v-.78Q2.11,7.52,6.57,4A10,10,0,0,1,12.37,2.11Z"/><path class="cls-1" d="M61.87,2.11h13l.14.14V4l-.14.14H62q-4.55,0-7.29,4.39a8.45,8.45,0,0,0-1.06,4.17v.07q0,5,5.17,7.71a9.61,9.61,0,0,0,3.4.64H74.89l.14.14v1.77l-.14.14H61.66q-4.62,0-8.14-4.46a10,10,0,0,1-1.91-5.8v-.78q0-4.63,4.46-8.14A10,10,0,0,1,61.87,2.11Z"/><path class="cls-1" d="M32.95,2.11H48.65l.14.14V3.88L48.65,4H34.29q-2.9,0-3.75,1.27a3.65,3.65,0,0,0-1,2.41,3.69,3.69,0,0,0,2.83,3.68l.71.07H43.77a5.71,5.71,0,0,1,5.17,3.33,5,5,0,0,1,.57,2.34v.71q0,2.56-3,4.67a6.2,6.2,0,0,1-2.41.71H27.78l-.14-.14v-1.7l.14-.14H42.92q3.47,0,4.39-2.62l.21-1.2a3.75,3.75,0,0,0-3-3.82L44,13.5l-11.25-.07q-2,0-4.1-2.34a6,6,0,0,1-1-3.11V7.42q0-2.83,3.18-4.81A6.74,6.74,0,0,1,32.95,2.11Z"/><path class="cls-1" d="M77.28,2.11h20.8l.14.14V3.88L98.09,4h-19v7.92H92.14l.14.14v1.7l-.14.14H79.05v7.36h19l.14.14v1.63l-.14.14H77.28l-.14-.14V2.25Z"/><path class="cls-1" d="M112.15,2h1.63l.14.14V23.05l-.14.14h-1.63l-.14-.14V22.7h-.07a4,4,0,0,1-1.7.5h-3.68q-3.43,0-5.59-3.61a6.26,6.26,0,0,1-.64-2.62V16.4q0-3.77,4.17-5.87A11.74,11.74,0,0,1,108,10.1h1.06a6.35,6.35,0,0,1,2.9.57V2.18Zm-5.66,10.12q-2.49,0-3.89,2.9a3.79,3.79,0,0,0-.28,1.42v.42q0,2.65,2.9,4a3.78,3.78,0,0,0,1.42.28h.14l3.18.07q1.68,0,2.05-2.12V14.77q0-2.69-2.19-2.69Z"/><path class="cls-1" d="M116.17,10.17h1.63l.14.14v8.42a2.27,2.27,0,0,0,1.2,2.34,1.76,1.76,0,0,0,.78.14h4.6a2,2,0,0,0,1.91-1.34l.14-1V10.32l.14-.14h1.63l.14.14V23.05l-.14.14h-1.63q-.14,0-.14-.57a3.9,3.9,0,0,1-2,.57h-4.88q-2.16,0-3.4-2.48a2.73,2.73,0,0,1-.28-1.2v-9.2Z"/><path class="cls-2" d="M135.39,20v2.78H132.7V20Z"/><path class="cls-2" d="M137.64,2.11h26.89l.14.14V3.88l-.14.14H152.08v19l-.14.14h-1.7l-.14-.14V4H137.64l-.14-.14V2.25Z"/><path class="cls-2" d="M160.87,10.17h3.75q2.14,0,3.4,2.48a2.73,2.73,0,0,1,.28,1.2v.57q0,2.49-2.9,3.68l-1.27.14H156.9A4,4,0,0,0,158,20q1.06,1.27,4.53,1.27h4.53l.14.14v1.63l-.14.14h-6.23q-3.52,0-5.59-3.68a5.44,5.44,0,0,1-.64-2.55V16.4q0-3.43,3.61-5.59A6.26,6.26,0,0,1,160.87,10.17Zm-4.25,6.09h7.64q2.05-.25,2.05-2l.07-.07a2,2,0,0,0-1.84-2.05h-3.61q-2.83,0-4.17,3.25Z"/><path class="cls-2" d="M173.67,10.17h7.85l.14.14V12l-.14.14h-7.85q-1.49.27-1.49,1.42v.35A1.61,1.61,0,0,0,174,15.27h5.59a4.09,4.09,0,0,1,4.1,3l.07.64v.57q0,2.16-2.48,3.4a2.73,2.73,0,0,1-1.2.28h-9.84l-.14-.14v-1.7l.14-.14H180q1.4,0,1.84-1.91-.37-2-1.77-2l-.5-.07H174.1a4.05,4.05,0,0,1-4-2.83l-.07-.71q0-2.32,2.83-3.4A1.77,1.77,0,0,1,173.67,10.17Z"/><path class="cls-2" d="M187.12,3.95h1.63l.14.14V8.34h3l.14.14v1.7l-.14.14h-3v8.35a2.36,2.36,0,0,0,1.2,2.41q1,.21,1,.35v1.63l-.14.14h-.21q-2.53,0-3.68-3l-.07-.78V10.32h-3l-.14-.14V8.48l.14-.14h3V4.09Z"/></g></g></svg>