<svg xmlns="http://www.w3.org/2000/svg" viewBox="0 0 755.72 755.72"><defs><style>.cls-1{fill:#fff;}.cls-2{fill:#1abc9c;}.cls-3{fill:#4189eb;}.cls-4{fill:#644bc8;}.cls-5{fill:#ff8c00;}.cls-6{fill:#e74c3c;}</style></defs><title>Logo</title><g id="Layer_2" data-name="Layer 2"><g id="Layer_1-2" data-name="Layer 1"><rect class="cls-1" width="755.72" height="755.72"/><path class="cls-2" d="M176.75,596.82H451.42a5,5,0,0,1,5,5v50a5,5,0,0,1-5,5H176.75a30,30,0,0,1-30-30v0a30,30,0,0,1,30-30Z"/><path class="cls-1" d="M176.08,601.82h30.87l.34.34v4.19l-.34.34H176.41q-10.78,0-17.28,10.4a20,20,0,0,0-2.52,9.9v.17q0,11.83,12.25,18.29a22.8,22.8,0,0,0,8.05,1.51h30l.34.34v4.19l-.34.34H175.57q-10.95,0-19.3-10.57a23.67,23.67,0,0,1-4.53-13.76v-1.85q0-11,10.57-19.3A23.79,23.79,0,0,1,176.08,601.82Z"/><path class="cls-1" d="M293.46,601.82h30.87l.34.34v4.19l-.34.34H293.8q-10.78,0-17.28,10.4A20,20,0,0,0,274,627v.17q0,11.83,12.25,18.29A22.8,22.8,0,0,0,294.3,647h30l.34.34v4.19l-.34.34H293q-10.95,0-19.3-10.57a23.67,23.67,0,0,1-4.53-13.76v-1.85q0-11,10.57-19.3A23.79,23.79,0,0,1,293.46,601.82Z"/><path class="cls-1" d="M224.87,601.82h37.25l.34.34V606l-.34.34H228.06q-6.88,0-8.89,3a8.65,8.65,0,0,0-2.35,5.7q0,6.38,6.71,8.72l1.68.17h25.34q7.84,0,12.25,7.89a11.74,11.74,0,0,1,1.34,5.54v1.68q0,6.08-7,11.07a14.71,14.71,0,0,1-5.7,1.68H212.62l-.34-.34v-4l.34-.34h35.91q8.22,0,10.4-6.21l.5-2.85q0-6.88-7.21-9.06l-1.17-.17-26.68-.17q-4.78,0-9.73-5.54a14.1,14.1,0,0,1-2.35-7.38V614.4q0-6.71,7.55-11.41A16,16,0,0,1,224.87,601.82Z"/><path class="cls-1" d="M330,601.82h49.33l.34.34V606l-.34.34H334.2v18.79h31l.34.34v4l-.34.34h-31v17.45h45.13l.34.34v3.86l-.34.34H330l-.34-.34V602.15Z"/><path class="cls-1" d="M412.69,601.65h3.86l.34.34v49.5l-.34.34h-3.86l-.34-.34v-.84h-.17a9.36,9.36,0,0,1-4,1.17h-8.72q-8.14,0-13.26-8.56a14.84,14.84,0,0,1-1.51-6.21v-1.34q0-8.93,9.9-13.93a27.84,27.84,0,0,1,8.39-1h2.52a15.05,15.05,0,0,1,6.88,1.34V602Zm-13.42,24q-5.91,0-9.23,6.88a9,9,0,0,0-.67,3.36v1q0,6.29,6.88,9.56a9,9,0,0,0,3.36.67h.34l7.55.17q4,0,4.87-5v-10.4q0-6.38-5.2-6.38Z"/><path class="cls-1" d="M422.22,620.95h3.86l.34.34v20q0,4.28,2.85,5.54a4.18,4.18,0,0,0,1.85.34H442a4.64,4.64,0,0,0,4.53-3.19l.34-2.35v-20.3l.34-.34h3.86l.34.34v30.2l-.34.34h-3.86q-.34,0-.34-1.34a9.24,9.24,0,0,1-4.7,1.34H430.61q-5.12,0-8.05-5.87a6.46,6.46,0,0,1-.67-2.85V621.28Z"/><path class="cls-3" d="M178.56,96.82H453.23a5,5,0,0,1,5,5v50a5,5,0,0,1-5,5H178.56a30,30,0,0,1-30-30v0a30,30,0,0,1,30-30Z"/><path class="cls-1" d="M177.89,101.82h30.87l.34.34v4.19l-.34.34H178.23q-10.78,0-17.28,10.4a20,20,0,0,0-2.52,9.9v.17q0,11.83,12.25,18.29a22.8,22.8,0,0,0,8.05,1.51h30l.34.34v4.19l-.34.34H177.39q-10.95,0-19.3-10.57a23.67,23.67,0,0,1-4.53-13.76v-1.85q0-11,10.57-19.3A23.79,23.79,0,0,1,177.89,101.82Z"/><path class="cls-1" d="M295.28,101.82h30.87l.34.34v4.19l-.34.34H295.61q-10.78,0-17.28,10.4a20,20,0,0,0-2.52,9.9v.17q0,11.83,12.25,18.29a22.8,22.8,0,0,0,8.05,1.51h30l.34.34v4.19l-.34.34H294.77q-10.95,0-19.3-10.57a23.67,23.67,0,0,1-4.53-13.76v-1.85q0-11,10.57-19.3A23.79,23.79,0,0,1,295.28,101.82Z"/><path class="cls-1" d="M226.68,101.82h37.25l.34.34V106l-.34.34H229.87q-6.88,0-8.89,3a8.65,8.65,0,0,0-2.35,5.7q0,6.38,6.71,8.72L227,124h25.34q7.84,0,12.25,7.89a11.74,11.74,0,0,1,1.34,5.54v1.68q0,6.08-7,11.07a14.71,14.71,0,0,1-5.7,1.68H214.44l-.34-.34v-4l.34-.34h35.91q8.22,0,10.4-6.21l.5-2.85q0-6.88-7.21-9.06l-1.17-.17-26.68-.17q-4.78,0-9.73-5.54a14.1,14.1,0,0,1-2.35-7.38V114.4q0-6.71,7.55-11.41A16,16,0,0,1,226.68,101.82Z"/><path class="cls-1" d="M331.82,101.82h49.33l.34.34V106l-.34.34H336v18.79h31l.34.34v4l-.34.34H336v17.45h45.13l.34.34v3.86l-.34.34H331.82l-.34-.34V102.15Z"/><path class="cls-1" d="M414.51,101.65h3.86l.34.34v49.5l-.34.34h-3.86l-.34-.34v-.84H414a9.36,9.36,0,0,1-4,1.17h-8.72q-8.14,0-13.26-8.56a14.84,14.84,0,0,1-1.51-6.21v-1.34q0-8.93,9.9-13.93a27.84,27.84,0,0,1,8.39-1h2.52a15.05,15.05,0,0,1,6.88,1.34V102Zm-13.42,24q-5.91,0-9.23,6.88a9,9,0,0,0-.67,3.36v1q0,6.29,6.88,9.56a9,9,0,0,0,3.36.67h.34l7.55.17q4,0,4.87-5v-10.4q0-6.38-5.2-6.38Z"/><path class="cls-1" d="M424,120.95h3.86l.34.34v20q0,4.28,2.85,5.54a4.18,4.18,0,0,0,1.85.34h10.91a4.64,4.64,0,0,0,4.53-3.19l.34-2.35v-20.3l.34-.34h3.86l.34.34v30.2l-.34.34H449q-.34,0-.34-1.34a9.24,9.24,0,0,1-4.7,1.34H432.43q-5.12,0-8.05-5.87a6.46,6.46,0,0,1-.67-2.85V121.28Z"/><path class="cls-4" d="M178.56,196.82H453.23a5,5,0,0,1,5,5v50a5,5,0,0,1-5,5H178.56a30,30,0,0,1-30-30v0a30,30,0,0,1,30-30Z"/><path class="cls-1" d="M177.89,201.82h30.87l.34.34v4.19l-.34.34H178.23q-10.78,0-17.28,10.4a20,20,0,0,0-2.52,9.9v.17q0,11.83,12.25,18.29a22.8,22.8,0,0,0,8.05,1.51h30l.34.34v4.19l-.34.34H177.39q-10.95,0-19.3-10.57a23.67,23.67,0,0,1-4.53-13.76v-1.85q0-11,10.57-19.3A23.79,23.79,0,0,1,177.89,201.82Z"/><path class="cls-1" d="M295.28,201.82h30.87l.34.34v4.19l-.34.34H295.61q-10.78,0-17.28,10.4a20,20,0,0,0-2.52,9.9v.17q0,11.83,12.25,18.29a22.8,22.8,0,0,0,8.05,1.51h30l.34.34v4.19l-.34.34H294.77q-10.95,0-19.3-10.57a23.67,23.67,0,0,1-4.53-13.76v-1.85q0-11,10.57-19.3A23.79,23.79,0,0,1,295.28,201.82Z"/><path class="cls-1" d="M226.68,201.82h37.25l.34.34V206l-.34.34H229.87q-6.88,0-8.89,3a8.65,8.65,0,0,0-2.35,5.7q0,6.38,6.71,8.72L227,224h25.34q7.84,0,12.25,7.89a11.74,11.74,0,0,1,1.34,5.54v1.68q0,6.08-7,11.07a14.71,14.71,0,0,1-5.7,1.68H214.44l-.34-.34v-4l.34-.34h35.91q8.22,0,10.4-6.21l.5-2.85q0-6.88-7.21-9.06l-1.17-.17-26.68-.17q-4.78,0-9.73-5.54a14.1,14.1,0,0,1-2.35-7.38V214.4q0-6.71,7.55-11.41A16,16,0,0,1,226.68,201.82Z"/><path class="cls-1" d="M331.82,201.82h49.33l.34.34V206l-.34.34H336v18.79h31l.34.34v4l-.34.34H336v17.45h45.13l.34.34v3.86l-.34.34H331.82l-.34-.34V202.15Z"/><path class="cls-1" d="M414.51,201.65h3.86l.34.34v49.5l-.34.34h-3.86l-.34-.34v-.84H414a9.36,9.36,0,0,1-4,1.17h-8.72q-8.14,0-13.26-8.56a14.84,14.84,0,0,1-1.51-6.21v-1.34q0-8.93,9.9-13.93a27.84,27.84,0,0,1,8.39-1h2.52a15.05,15.05,0,0,1,6.88,1.34V202Zm-13.42,24q-5.91,0-9.23,6.88a9,9,0,0,0-.67,3.36v1q0,6.29,6.88,9.56a9,9,0,0,0,3.36.67h.34l7.55.17q4,0,4.87-5v-10.4q0-6.38-5.2-6.38Z"/><path class="cls-1" d="M424,220.95h3.86l.34.34v20q0,4.28,2.85,5.54a4.18,4.18,0,0,0,1.85.34h10.91a4.64,4.64,0,0,0,4.53-3.19l.34-2.35v-20.3l.34-.34h3.86l.34.34v30.2l-.34.34H449q-.34,0-.34-1.34a9.24,9.24,0,0,1-4.7,1.34H432.43q-5.12,0-8.05-5.87a6.46,6.46,0,0,1-.67-2.85V221.28Z"/><path class="cls-3" d="M178.56,296.82H453.23a5,5,0,0,1,5,5v50a5,5,0,0,1-5,5H178.56a30,30,0,0,1-30-30v0a30,30,0,0,1,30-30Z"/><path class="cls-1" d="M177.89,301.82h30.87l.34.34v4.19l-.34.34H178.23q-10.78,0-17.28,10.4a20,20,0,0,0-2.52,9.9v.17q0,11.83,12.25,18.29a22.8,22.8,0,0,0,8.05,1.51h30l.34.34v4.19l-.34.34H177.39q-10.95,0-19.3-10.57a23.67,23.67,0,0,1-4.53-13.76v-1.85q0-11,10.57-19.3A23.79,23.79,0,0,1,177.89,301.82Z"/><path class="cls-1" d="M295.28,301.82h30.87l.34.34v4.19l-.34.34H295.61q-10.78,0-17.28,10.4a20,20,0,0,0-2.52,9.9v.17q0,11.83,12.25,18.29a22.8,22.8,0,0,0,8.05,1.51h30l.34.34v4.19l-.34.34H294.77q-10.95,0-19.3-10.57a23.67,23.67,0,0,1-4.53-13.76v-1.85q0-11,10.57-19.3A23.79,23.79,0,0,1,295.28,301.82Z"/><path class="cls-1" d="M226.68,301.82h37.25l.34.34V306l-.34.34H229.87q-6.88,0-8.89,3a8.65,8.65,0,0,0-2.35,5.7q0,6.38,6.71,8.72L227,324h25.34q7.84,0,12.25,7.89a11.74,11.74,0,0,1,1.34,5.54v1.68q0,6.08-7,11.07a14.71,14.71,0,0,1-5.7,1.68H214.44l-.34-.34v-4l.34-.34h35.91q8.22,0,10.4-6.21l.5-2.85q0-6.88-7.21-9.06l-1.17-.17-26.68-.17q-4.78,0-9.73-5.54a14.1,14.1,0,0,1-2.35-7.38V314.4q0-6.71,7.55-11.41A16,16,0,0,1,226.68,301.82Z"/><path class="cls-1" d="M331.82,301.82h49.33l.34.34V306l-.34.34H336v18.79h31l.34.34v4l-.34.34H336v17.45h45.13l.34.34v3.86l-.34.34H331.82l-.34-.34V302.15Z"/><path class="cls-1" d="M414.51,301.65h3.86l.34.34v49.5l-.34.34h-3.86l-.34-.34v-.84H414a9.36,9.36,0,0,1-4,1.17h-8.72q-8.14,0-13.26-8.56a14.84,14.84,0,0,1-1.51-6.21v-1.34q0-8.93,9.9-13.93a27.84,27.84,0,0,1,8.39-1h2.52a15.05,15.05,0,0,1,6.88,1.34V302Zm-13.42,24q-5.91,0-9.23,6.88a9,9,0,0,0-.67,3.36v1q0,6.29,6.88,9.56a9,9,0,0,0,3.36.67h.34l7.55.17q4,0,4.87-5v-10.4q0-6.38-5.2-6.38Z"/><path class="cls-1" d="M424,320.95h3.86l.34.34v20q0,4.28,2.85,5.54a4.18,4.18,0,0,0,1.85.34h10.91a4.64,4.64,0,0,0,4.53-3.19l.34-2.35v-20.3l.34-.34h3.86l.34.34v30.2l-.34.34H449q-.34,0-.34-1.34a9.24,9.24,0,0,1-4.7,1.34H432.43q-5.12,0-8.05-5.87a6.46,6.46,0,0,1-.67-2.85V321.28Z"/><path class="cls-5" d="M178.56,396.82H453.23a5,5,0,0,1,5,5v50a5,5,0,0,1-5,5H178.56a30,30,0,0,1-30-30v0a30,30,0,0,1,30-30Z"/><path class="cls-1" d="M177.89,401.82h30.87l.34.34v4.19l-.34.34H178.23q-10.78,0-17.28,10.4a20,20,0,0,0-2.52,9.9v.17q0,11.83,12.25,18.29a22.8,22.8,0,0,0,8.05,1.51h30l.34.34v4.19l-.34.34H177.39q-10.95,0-19.3-10.57a23.67,23.67,0,0,1-4.53-13.76v-1.85q0-11,10.57-19.3A23.79,23.79,0,0,1,177.89,401.82Z"/><path class="cls-1" d="M295.28,401.82h30.87l.34.34v4.19l-.34.34H295.61q-10.78,0-17.28,10.4a20,20,0,0,0-2.52,9.9v.17q0,11.83,12.25,18.29a22.8,22.8,0,0,0,8.05,1.51h30l.34.34v4.19l-.34.34H294.77q-10.95,0-19.3-10.57a23.67,23.67,0,0,1-4.53-13.76v-1.85q0-11,10.57-19.3A23.79,23.79,0,0,1,295.28,401.82Z"/><path class="cls-1" d="M226.68,401.82h37.25l.34.34V406l-.34.34H229.87q-6.88,0-8.89,3a8.65,8.65,0,0,0-2.35,5.7q0,6.38,6.71,8.72L227,424h25.34q7.84,0,12.25,7.89a11.74,11.74,0,0,1,1.34,5.54v1.68q0,6.08-7,11.07a14.71,14.71,0,0,1-5.7,1.68H214.44l-.34-.34v-4l.34-.34h35.91q8.22,0,10.4-6.21l.5-2.85q0-6.88-7.21-9.06l-1.17-.17-26.68-.17q-4.78,0-9.73-5.54a14.1,14.1,0,0,1-2.35-7.38V414.4q0-6.71,7.55-11.41A16,16,0,0,1,226.68,401.82Z"/><path class="cls-1" d="M331.82,401.82h49.33l.34.34V406l-.34.34H336v18.79h31l.34.34v4l-.34.34H336v17.45h45.13l.34.34v3.86l-.34.34H331.82l-.34-.34V402.15Z"/><path class="cls-1" d="M414.51,401.65h3.86l.34.34v49.5l-.34.34h-3.86l-.34-.34v-.84H414a9.36,9.36,0,0,1-4,1.17h-8.72q-8.14,0-13.26-8.56a14.84,14.84,0,0,1-1.51-6.21v-1.34q0-8.93,9.9-13.93a27.84,27.84,0,0,1,8.39-1h2.52a15.05,15.05,0,0,1,6.88,1.34V402Zm-13.42,24q-5.91,0-9.23,6.88a9,9,0,0,0-.67,3.36v1q0,6.29,6.88,9.56a9,9,0,0,0,3.36.67h.34l7.55.17q4,0,4.87-5v-10.4q0-6.38-5.2-6.38Z"/><path class="cls-1" d="M424,420.95h3.86l.34.34v20q0,4.28,2.85,5.54a4.18,4.18,0,0,0,1.85.34h10.91a4.64,4.64,0,0,0,4.53-3.19l.34-2.35v-20.3l.34-.34h3.86l.34.34v30.2l-.34.34H449q-.34,0-.34-1.34a9.24,9.24,0,0,1-4.7,1.34H432.43q-5.12,0-8.05-5.87a6.46,6.46,0,0,1-.67-2.85V421.28Z"/><path class="cls-6" d="M178.56,496.82H453.23a5,5,0,0,1,5,5v50a5,5,0,0,1-5,5H178.56a30,30,0,0,1-30-30v0a30,30,0,0,1,30-30Z"/><path class="cls-1" d="M177.89,501.82h30.87l.34.34v4.19l-.34.34H178.23q-10.78,0-17.28,10.4a20,20,0,0,0-2.52,9.9v.17q0,11.83,12.25,18.29a22.8,22.8,0,0,0,8.05,1.51h30l.34.34v4.19l-.34.34H177.39q-10.95,0-19.3-10.57a23.67,23.67,0,0,1-4.53-13.76v-1.85q0-11,10.57-19.3A23.79,23.79,0,0,1,177.89,501.82Z"/><path class="cls-1" d="M295.28,501.82h30.87l.34.34v4.19l-.34.34H295.61q-10.78,0-17.28,10.4a20,20,0,0,0-2.52,9.9v.17q0,11.83,12.25,18.29a22.8,22.8,0,0,0,8.05,1.51h30l.34.34v4.19l-.34.34H294.77q-10.95,0-19.3-10.57a23.67,23.67,0,0,1-4.53-13.76v-1.85q0-11,10.57-19.3A23.79,23.79,0,0,1,295.28,501.82Z"/><path class="cls-1" d="M226.68,501.82h37.25l.34.34V506l-.34.34H229.87q-6.88,0-8.89,3a8.65,8.65,0,0,0-2.35,5.7q0,6.38,6.71,8.72L227,524h25.34q7.84,0,12.25,7.89a11.74,11.74,0,0,1,1.34,5.54v1.68q0,6.08-7,11.07a14.71,14.71,0,0,1-5.7,1.68H214.44l-.34-.34v-4l.34-.34h35.91q8.22,0,10.4-6.21l.5-2.85q0-6.88-7.21-9.06l-1.17-.17-26.68-.17q-4.78,0-9.73-5.54a14.1,14.1,0,0,1-2.35-7.38V514.4q0-6.71,7.55-11.41A16,16,0,0,1,226.68,501.82Z"/><path class="cls-1" d="M331.82,501.82h49.33l.34.34V506l-.34.34H336v18.79h31l.34.34v4l-.34.34H336v17.45h45.13l.34.34v3.86l-.34.34H331.82l-.34-.34V502.15Z"/><path class="cls-1" d="M414.51,501.65h3.86l.34.34v49.5l-.34.34h-3.86l-.34-.34v-.84H414a9.36,9.36,0,0,1-4,1.17h-8.72q-8.14,0-13.26-8.56a14.84,14.84,0,0,1-1.51-6.21v-1.34q0-8.93,9.9-13.93a27.84,27.84,0,0,1,8.39-1h2.52a15.05,15.05,0,0,1,6.88,1.34V502Zm-13.42,24q-5.91,0-9.23,6.88a9,9,0,0,0-.67,3.36v1q0,6.29,6.88,9.56a9,9,0,0,0,3.36.67h.34l7.55.17q4,0,4.87-5v-10.4q0-6.38-5.2-6.38Z"/><path class="cls-1" d="M424,520.95h3.86l.34.34v20q0,4.28,2.85,5.54a4.18,4.18,0,0,0,1.85.34h10.91a4.64,4.64,0,0,0,4.53-3.19l.34-2.35v-20.3l.34-.34h3.86l.34.34v30.2l-.34.34H449q-.34,0-.34-1.34a9.24,9.24,0,0,1-4.7,1.34H432.43q-5.12,0-8.05-5.87a6.46,6.46,0,0,1-.67-2.85V521.28Z"/><path class="cls-4" d="M469.61,244.18v6.59h-6.38v-6.59Z"/><path class="cls-4" d="M474.94,201.82h3.86l.34.34v45.13h43.46l.34.34v3.86l-.34.34H474.94l-.34-.34V202.15Z"/><path class="cls-4" d="M527.46,214.74h3.86l.34.34v3l-.34.34h-3.86l-.34-.34v-3Zm0,6.21h3.86l.34.34v30.2l-.34.34h-3.86l-.34-.34v-30.2Z"/><path class="cls-4" d="M536.18,206.18H540l.34.34v15.77h.17a9.76,9.76,0,0,1,5.54-1.34h5.7q12.37,0,16.11,12.42l.17,2.68v1q0,9.27-10.4,14.09a18.44,18.44,0,0,1-4.36.67h-9.23a13.34,13.34,0,0,1-3.69-1.17v.84l-.34.34h-3.86l-.34-.34v-45Zm4.19,25.5v9.23q0,4.11,2,5.37a3.83,3.83,0,0,0,2.18.84h8.72q6.38,0,9.56-7.21a8.06,8.06,0,0,0,.5-2.85v-1.17q0-6.17-6.71-9.4a10.87,10.87,0,0,0-4.7-.84h-6.54Q540.38,225.64,540.38,231.68Z"/><path class="cls-3" d="M469.61,344.18v6.59h-6.38v-6.59Z"/><path class="cls-3" d="M474.94,301.82H538.7l.34.34V306l-.34.34H509.17v45.13l-.34.34h-4l-.34-.34V306.35H474.94l-.34-.34v-3.86Z"/><path class="cls-3" d="M530,320.95h8.89q5.08,0,8.05,5.87a6.47,6.47,0,0,1,.67,2.85V331q0,5.91-6.88,8.72l-3,.34H520.62q.25,1.59,2.68,4.19,2.52,3,10.74,3h10.74l.34.34v3.86l-.34.34H530q-8.35,0-13.26-8.72a12.89,12.89,0,0,1-1.51-6v-1.34q0-8.14,8.56-13.26A14.84,14.84,0,0,1,530,320.95ZM520,335.37h18.12q4.87-.59,4.87-4.7l.17-.17q0-3.9-4.36-4.87h-8.56q-6.71,0-9.9,7.72Z"/><path class="cls-3" d="M560.39,320.95H579l.34.34v4l-.34.34H560.39q-3.52.63-3.52,3.36v.84q.71,3.19,4.19,3.19h13.26q7.13,0,9.73,7.21l.17,1.51v1.34q0,5.12-5.87,8.05a6.47,6.47,0,0,1-2.85.67H552.17l-.34-.34v-4l.34-.34h23.15q3.31,0,4.36-4.53-.88-4.7-4.19-4.7l-1.17-.17H561.39q-6.63,0-9.4-6.71l-.17-1.68q0-5.49,6.71-8.05A4.19,4.19,0,0,1,560.39,320.95Z"/><path class="cls-3" d="M592.27,306.18h3.86l.34.34v10.07h7l.34.34v4l-.34.34h-7v19.8q0,4.4,2.85,5.7,2.35.5,2.35.84v3.86l-.34.34h-.5q-6,0-8.72-7.21l-.17-1.85V321.28h-7l-.34-.34v-4l.34-.34h7V306.52Z"/><path class="cls-5" d="M469.61,444.18v6.59h-6.38v-6.59Z"/><path class="cls-5" d="M474.94,401.82h49.33l.34.34V406l-.34.34H479.14v18.79h31l.34.34v4l-.34.34h-31v17.45h45.13l.34.34v3.86l-.34.34H474.94l-.34-.34V402.15Z"/><path class="cls-5" d="M546.38,401.82h6.88q14.35,0,22.15,13.76a23.52,23.52,0,0,1,2.52,10.4v2q0,8.31-7.21,16.44l4,4.19-3.19,3.19L567,447.46q-6,4.19-16.28,4.19h-1.68q-12.37,0-19-6.38-8.22-8-8.22-17.45v-2.35q0-9.82,8.89-18A24.22,24.22,0,0,1,546.38,401.82Zm-19.8,24.83q0,9.4,7.89,15.94a18.76,18.76,0,0,0,11.07,4h8.39a20.21,20.21,0,0,0,9.56-2.68l-6.88-7v-.17l3-3h.17l7.38,7.21a19.59,19.59,0,0,0,6-14.09q0-11.54-11.07-18.12a22.13,22.13,0,0,0-9.23-2h-5.7q-15.06,0-20.13,15.44Z"/><path class="cls-6" d="M469.61,544.18v6.59h-6.38v-6.59Z"/><path class="cls-6" d="M474.94,501.82h4.19l27.52,27.35L534,501.82h4.19l.34.34v49.33l-.34.34h-3.86l-.34-.34V508.36l-27.35,27.35h-.17l-27.35-27.35v43.12l-.34.34h-3.86l-.34-.34V502.15Z"/><path class="cls-6" d="M574.94,501.82l32.21,49.83-.17.17h-6l-14.26-21.64H562.86q-11.79,19-13.93,21.64h-5.87l-.34-.34Zm-.17,9.9L566,525.48h17.62v-.17Z"/><path class="cls-2" d="M469.61,644.18v6.59h-6.38v-6.59Z"/><path class="cls-2" d="M479.14,601.82q.34,0,2.85,9.9l8.22,31.21h.17q0-.42,16.11-16.44l16.44,16.44L534,601.82h4.36l.34.34-13.42,49.66h-.17L506.32,633,488,651.65q-.38,0-3-10.74L474.61,602l.17-.17Z"/><path class="cls-2" d="M551.16,620.95h8.89q5.08,0,8.05,5.87a6.47,6.47,0,0,1,.67,2.85V631q0,5.91-6.88,8.72l-3,.34H541.76q.25,1.59,2.68,4.19,2.52,3,10.74,3h10.74l.34.34v3.86l-.34.34H551.16q-8.35,0-13.26-8.72a12.89,12.89,0,0,1-1.51-6v-1.34q0-8.14,8.56-13.26A14.84,14.84,0,0,1,551.16,620.95Zm-10.07,14.43h18.12q4.87-.59,4.87-4.7l.17-.17q0-3.9-4.36-4.87h-8.56q-6.71,0-9.9,7.72Z"/><path class="cls-2" d="M573.31,606.18h3.86l.34.34v15.77h.17a9.76,9.76,0,0,1,5.54-1.34h5.7q12.37,0,16.11,12.42l.17,2.68v1q0,9.27-10.4,14.09a18.44,18.44,0,0,1-4.36.67h-9.23a13.34,13.34,0,0,1-3.69-1.17v.84l-.34.34h-3.86l-.34-.34v-45Zm4.19,25.5v9.23q0,4.11,2,5.37a3.83,3.83,0,0,0,2.18.84h8.72q6.38,0,9.56-7.21a8.06,8.06,0,0,0,.5-2.85v-1.17q0-6.17-6.71-9.4a10.87,10.87,0,0,0-4.7-.84h-6.54Q577.5,625.64,577.5,631.68Z"/></g></g></svg>