<svg xmlns="http://www.w3.org/2000/svg" viewBox="0 0 458.6 60"><defs><style>.cls-1{fill:#e74c3c;}.cls-2{fill:#fff;}</style></defs><title>CSCEdu.MA</title><g id="Layer_2" data-name="Layer 2"><g id="Layer_1-2" data-name="Layer 1"><path class="cls-1" d="M30,0H304.67a5,5,0,0,1,5,5V55a5,5,0,0,1-5,5H30A30,30,0,0,1,0,30v0A30,30,0,0,1,30,0Z"/><path class="cls-2" d="M29.33,5H60.2l.34.34V9.53l-.34.34H29.66q-10.78,0-17.28,10.4a20,20,0,0,0-2.52,9.9v.17q0,11.83,12.25,18.29a22.8,22.8,0,0,0,8.05,1.51h30l.34.34v4.19L60.2,55H28.83Q17.88,55,9.53,44.43A23.67,23.67,0,0,1,5,30.67V28.83q0-11,10.57-19.3A23.79,23.79,0,0,1,29.33,5Z"/><path class="cls-2" d="M146.72,5h30.87l.34.34V9.53l-.34.34H147.05q-10.78,0-17.28,10.4a20,20,0,0,0-2.52,9.9v.17q0,11.83,12.25,18.29a22.8,22.8,0,0,0,8.05,1.51h30l.34.34v4.19l-.34.34H146.21q-10.95,0-19.3-10.57a23.67,23.67,0,0,1-4.53-13.76V28.83q0-11,10.57-19.3A23.79,23.79,0,0,1,146.72,5Z"/><path class="cls-2" d="M78.12,5h37.25l.34.34V9.19l-.34.34H81.31q-6.88,0-8.89,3a8.65,8.65,0,0,0-2.35,5.7q0,6.38,6.71,8.72l1.68.17h25.34q7.84,0,12.25,7.89a11.74,11.74,0,0,1,1.34,5.54v1.68q0,6.08-7,11.07a14.71,14.71,0,0,1-5.7,1.68H65.88l-.34-.34v-4l.34-.34h35.91q8.22,0,10.4-6.21l.5-2.85q0-6.88-7.21-9.06L104.3,32l-26.68-.17q-4.78,0-9.73-5.54a14.1,14.1,0,0,1-2.35-7.38V17.58q0-6.71,7.55-11.41A16,16,0,0,1,78.12,5Z"/><path class="cls-2" d="M183.26,5h49.33l.34.34V9.19l-.34.34H187.46V28.32h31l.34.34v4l-.34.34h-31V50.47h45.13l.34.34v3.86l-.34.34H183.26l-.34-.34V5.34Z"/><path class="cls-2" d="M265.95,4.83h3.86l.34.34v49.5l-.34.34h-3.86l-.34-.34v-.84h-.17a9.36,9.36,0,0,1-4,1.17h-8.72q-8.14,0-13.26-8.56a14.84,14.84,0,0,1-1.51-6.21V38.89q0-8.93,9.9-13.93a27.84,27.84,0,0,1,8.39-1h2.52a15.05,15.05,0,0,1,6.88,1.34V5.17Zm-13.42,24q-5.91,0-9.23,6.88a9,9,0,0,0-.67,3.36v1q0,6.29,6.88,9.56a9,9,0,0,0,3.36.67h.34l7.55.17q4,0,4.87-5V35q0-6.38-5.2-6.38Z"/><path class="cls-2" d="M275.48,24.13h3.86l.34.34v20q0,4.28,2.85,5.54a4.18,4.18,0,0,0,1.85.34h10.91a4.64,4.64,0,0,0,4.53-3.19l.34-2.35V24.46l.34-.34h3.86l.34.34v30.2l-.34.34h-3.86q-.34,0-.34-1.34a9.24,9.24,0,0,1-4.7,1.34H283.86q-5.12,0-8.05-5.87a6.46,6.46,0,0,1-.67-2.85V24.46Z"/><path class="cls-1" d="M321,47.37V54h-6.38V47.37Z"/><path class="cls-1" d="M326.38,5h4.19l27.52,27.35L385.44,5h4.19l.34.34V54.66l-.34.34h-3.86l-.34-.34V11.54L358.09,38.89h-.17L330.58,11.54V54.66l-.34.34h-3.86l-.34-.34V5.34Z"/><path class="cls-1" d="M426.38,5,458.6,54.83l-.17.17h-6L438.13,33.36H414.3q-11.79,19-13.93,21.64H394.5l-.34-.34Zm-.17,9.9-8.72,13.76h17.62v-.17Z"/></g></g></svg>